{
    "asset" : {
        "generator" : "Khronos glTF Blender I/O v1.1.16",
        "version" : "2.0"
    },
    "scene" : 0,
    "scenes" : [
        {
            "name" : "Scene",
            "nodes" : [
                0
            ]
        }
    ],
    "nodes" : [
        {
            "mesh" : 0,
            "name" : "Cylinder",
            "rotation" : [
                0,
                0,
                -0.06975647062063217,
                0.9975640773773193
            ],
            "translation" : [
                0.5480448603630066,
                3.244328022003174,
                0
            ]
        }
    ],
    "materials" : [
        {
            "doubleSided" : true,
            "emissiveFactor" : [
                0,
                0,
                0
            ],
            "name" : "Material.001",
            "pbrMetallicRoughness" : {
                "metallicFactor" : 0,
                "roughnessFactor" : 0
            }
        },
        {
            "doubleSided" : true,
            "emissiveFactor" : [
                0,
                0,
                0
            ],
            "name" : "Material.002",
            "pbrMetallicRoughness" : {
                "baseColorTexture" : {
                    "index" : 0,
                    "texCoord" : 0
                },
                "metallicFactor" : 0,
                "roughnessFactor" : 0.5
            }
        },
        {
            "doubleSided" : true,
            "emissiveFactor" : [
                0,
                0,
                0
            ],
            "name" : "Material.003",
            "pbrMetallicRoughness" : {
                "metallicFactor" : 0.7727272510528564,
                "roughnessFactor" : 0
            }
        }
    ],
    "meshes" : [
        {
            "name" : "Cylinder",
            "primitives" : [
                {
                    "attributes" : {
                        "POSITION" : 0,
                        "NORMAL" : 1,
                        "TEXCOORD_0" : 2
                    },
                    "indices" : 3,
                    "material" : 0
                },
                {
                    "attributes" : {
                        "POSITION" : 4,
                        "NORMAL" : 5,
                        "TEXCOORD_0" : 6
                    },
                    "indices" : 7,
                    "material" : 1
                },
                {
                    "attributes" : {
                        "POSITION" : 8,
                        "NORMAL" : 9,
                        "TEXCOORD_0" : 10
                    },
                    "indices" : 11,
                    "material" : 2
                }
            ]
        }
    ],
    "textures" : [
        {
            "source" : 0
        }
    ],
    "images" : [
        {
            "bufferView" : 8,
            "mimeType" : "image/jpeg",
            "name" : "BOIS"
        }
    ],
    "accessors" : [
        {
            "bufferView" : 0,
            "componentType" : 5126,
            "count" : 7040,
            "max" : [
                1.3802076578140259,
                1.5050642490386963,
                1.9960039854049683
            ],
            "min" : [
                -2.5999715328216553,
                -3.385819673538208,
                -1.996004581451416
            ],
            "type" : "VEC3"
        },
        {
            "bufferView" : 1,
            "componentType" : 5126,
            "count" : 7040,
            "type" : "VEC3"
        },
        {
            "bufferView" : 2,
            "componentType" : 5126,
            "count" : 7040,
            "type" : "VEC2"
        },
        {
            "bufferView" : 3,
            "componentType" : 5123,
            "count" : 11130,
            "type" : "SCALAR"
        },
        {
            "bufferView" : 4,
            "componentType" : 5126,
            "count" : 520,
            "max" : [
                1.2140185832977295,
                2.0378036499023438,
                1.9960039854049683
            ],
            "min" : [
                -2.6744275093078613,
                0.9389634728431702,
                -1.996004581451416
            ],
            "type" : "VEC3"
        },
        {
            "bufferView" : 5,
            "componentType" : 5126,
            "count" : 520,
            "type" : "VEC3"
        },
        {
            "bufferView" : 6,
            "componentType" : 5126,
            "count" : 520,
            "type" : "VEC2"
        },
        {
            "bufferView" : 7,
            "componentType" : 5123,
            "count" : 1536,
            "type" : "SCALAR"
        },
        {
            "bufferView" : 9,
            "componentType" : 5126,
            "count" : 13440,
            "max" : [
                0.05126333236694336,
                4.92896842956543,
                2.119816541671753
            ],
            "min" : [
                -1.7608479261398315,
                1.6332367658615112,
                -0.8569076061248779
            ],
            "type" : "VEC3"
        },
        {
            "bufferView" : 10,
            "componentType" : 5126,
            "count" : 13440,
            "type" : "VEC3"
        },
        {
            "bufferView" : 11,
            "componentType" : 5126,
            "count" : 13440,
            "type" : "VEC2"
        },
        {
            "bufferView" : 12,
            "componentType" : 5123,
            "count" : 20724,
            "type" : "SCALAR"
        }
    ],
    "bufferViews" : [
        {
            "buffer" : 0,
            "byteLength" : 84480,
            "byteOffset" : 0
        },
        {
            "buffer" : 0,
            "byteLength" : 84480,
            "byteOffset" : 84480
        },
        {
            "buffer" : 0,
            "byteLength" : 56320,
            "byteOffset" : 168960
        },
        {
            "buffer" : 0,
            "byteLength" : 22260,
            "byteOffset" : 225280
        },
        {
            "buffer" : 0,
            "byteLength" : 6240,
            "byteOffset" : 247540
        },
        {
            "buffer" : 0,
            "byteLength" : 6240,
            "byteOffset" : 253780
        },
        {
            "buffer" : 0,
            "byteLength" : 4160,
            "byteOffset" : 260020
        },
        {
            "buffer" : 0,
            "byteLength" : 3072,
            "byteOffset" : 264180
        },
        {
            "buffer" : 0,
            "byteLength" : 399171,
            "byteOffset" : 267252
        },
        {
            "buffer" : 0,
            "byteLength" : 161280,
            "byteOffset" : 666424
        },
        {
            "buffer" : 0,
            "byteLength" : 161280,
            "byteOffset" : 827704
        },
        {
            "buffer" : 0,
            "byteLength" : 107520,
            "byteOffset" : 988984
        },
        {
            "buffer" : 0,
            "byteLength" : 41448,
            "byteOffset" : 1096504
        }
    ],
    "buffers" : [
        {
            "byteLength" : 1137952,
            "uri" : "data:application/octet-stream;base64,"
        }
    ]
}
